<svg width="34" height="21" viewBox="0 0 34 21" fill="none" xmlns="http://www.w3.org/2000/svg">
<path d="M21.2386 17.8688H12.4894V2.14502H21.2386V17.8688Z" fill="#6C6BBD"/>
<path d="M13.0499 10.0059C13.0499 6.81621 14.5433 3.97496 16.8689 2.14395C15.1683 0.805021 13.0219 0.00585991 10.6893 0.00585991C5.167 0.00585991 0.690552 4.48294 0.690552 10.0059C0.690552 15.5288 5.167 20.0059 10.6893 20.0059C13.0219 20.0059 15.1683 19.2067 16.8689 17.8678C14.5433 16.0368 13.0499 13.1955 13.0499 10.0059Z" fill="#EB001B"/>
<path d="M33.0384 10.0059C33.0384 15.5288 28.562 20.0059 23.0397 20.0059C20.707 20.0059 18.5607 19.2067 16.8594 17.8678C19.1857 16.0368 20.6791 13.1955 20.6791 10.0059C20.6791 6.81621 19.1857 3.97496 16.8594 2.14395C18.5607 0.805021 20.707 0.00585991 23.0397 0.00585991C28.562 0.00585991 33.0384 4.48294 33.0384 10.0059Z" fill="#0099DF"/>
<path d="M25.8798 8.29612C26.023 8.29612 26.2288 8.3235 26.386 8.38531L26.1669 9.05502C26.0167 8.99321 25.8665 8.97287 25.7226 8.97287C25.2578 8.97287 25.0255 9.2733 25.0255 9.81314V11.6455H24.3143V8.37827H25.0184V8.77493C25.2031 8.4878 25.4699 8.29612 25.8798 8.29612ZM23.2526 9.02764H22.0908V10.504C22.0908 10.8318 22.2066 11.0509 22.5626 11.0509C22.7472 11.0509 22.9796 10.989 23.1908 10.8662L23.3958 11.4741C23.1705 11.6314 22.8153 11.7276 22.5078 11.7276C21.6667 11.7276 21.3734 11.2762 21.3734 10.5173V9.02764H20.7099V8.37827H21.3734V7.387H22.0908V8.37827H23.2526V9.02764ZM14.1544 9.72473C14.2303 9.25296 14.5166 8.93141 15.0228 8.93141C15.4805 8.93141 15.7747 9.21854 15.8498 9.72473H14.1544ZM16.5884 10.0119C16.5813 8.99321 15.9523 8.29612 15.0361 8.29612C14.0793 8.29612 13.4096 8.99321 13.4096 10.0119C13.4096 11.0501 14.1067 11.7268 15.0846 11.7268C15.5768 11.7268 16.0274 11.604 16.4241 11.2691L16.0751 10.7426C15.8021 10.9617 15.4531 11.0845 15.1253 11.0845C14.6676 11.0845 14.2506 10.8725 14.1481 10.2849H16.5743C16.5813 10.1957 16.5884 10.1073 16.5884 10.0119ZM19.7116 9.21228C19.5137 9.08866 19.1107 8.93141 18.6937 8.93141C18.3041 8.93141 18.0717 9.07536 18.0717 9.31477C18.0717 9.53305 18.3174 9.59486 18.6249 9.63554L18.9597 9.68327C19.6709 9.78654 20.1012 10.087 20.1012 10.6612C20.1012 11.2832 19.5543 11.7276 18.6116 11.7276C18.078 11.7276 17.5859 11.5907 17.1963 11.3036L17.5311 10.7496C17.7705 10.9343 18.1265 11.0915 18.6186 11.0915C19.1037 11.0915 19.3634 10.9484 19.3634 10.6949C19.3634 10.511 19.1788 10.4077 18.7892 10.3538L18.4543 10.306C17.7228 10.2028 17.3261 9.87495 17.3261 9.34215C17.3261 8.69278 17.8597 8.29612 18.6867 8.29612C19.2062 8.29612 19.678 8.41269 20.0191 8.63802L19.7116 9.21228ZM28.4781 8.97131C28.3318 8.97131 28.1964 8.99713 28.0705 9.04798C27.9453 9.09962 27.8365 9.1716 27.745 9.26391C27.6535 9.35623 27.5815 9.46733 27.5291 9.59642C27.4766 9.72551 27.4508 9.86791 27.4508 10.0228C27.4508 10.1785 27.4766 10.3201 27.5291 10.4492C27.5815 10.5783 27.6535 10.6894 27.745 10.7817C27.8365 10.874 27.9453 10.946 28.0705 10.9977C28.1964 11.0493 28.3318 11.0743 28.4781 11.0743C28.6244 11.0743 28.7605 11.0493 28.8857 10.9977C29.0117 10.946 29.1212 10.874 29.2127 10.7817C29.3058 10.6894 29.3778 10.5783 29.431 10.4492C29.4834 10.3201 29.5092 10.1785 29.5092 10.0228C29.5092 9.86791 29.4834 9.72551 29.431 9.59642C29.3778 9.46733 29.3058 9.35623 29.2127 9.26391C29.1212 9.1716 29.0117 9.09962 28.8857 9.04798C28.7605 8.99713 28.6244 8.97131 28.4781 8.97131ZM28.4781 8.29612C28.7316 8.29612 28.9663 8.33993 29.1822 8.42834C29.3981 8.51597 29.5851 8.63723 29.7424 8.79136C29.9004 8.94549 30.0233 9.12778 30.1125 9.33746C30.2016 9.54792 30.2462 9.77637 30.2462 10.0228C30.2462 10.2693 30.2016 10.4977 30.1125 10.7082C30.0233 10.9178 29.9004 11.1009 29.7424 11.2551C29.5851 11.4092 29.3981 11.5297 29.1822 11.6181C28.9663 11.7057 28.7316 11.7495 28.4781 11.7495C28.2246 11.7495 27.9899 11.7057 27.7739 11.6181C27.558 11.5297 27.3726 11.4092 27.2161 11.2551C27.0596 11.1009 26.9368 10.9178 26.8476 10.7082C26.7584 10.4977 26.7138 10.2693 26.7138 10.0228C26.7138 9.77637 26.7584 9.54792 26.8476 9.33746C26.9368 9.12778 27.0596 8.94549 27.2161 8.79136C27.3726 8.63723 27.558 8.51597 27.7739 8.42834C27.9899 8.33993 28.2246 8.29612 28.4781 8.29612ZM10.0016 10.0119C10.0016 9.4376 10.3779 8.96583 10.9928 8.96583C11.5804 8.96583 11.9771 9.41726 11.9771 10.0119C11.9771 10.6065 11.5804 11.0571 10.9928 11.0571C10.3779 11.0571 10.0016 10.5861 10.0016 10.0119ZM12.6468 10.0119V8.37827H11.9364V8.77493C11.7103 8.48076 11.3692 8.29612 10.9044 8.29612C9.98827 8.29612 9.27083 9.01356 9.27083 10.0119C9.27083 11.0094 9.98827 11.7276 10.9044 11.7276C11.3692 11.7276 11.7103 11.543 11.9364 11.2488V11.6455H12.6468V10.0119ZM8.64181 11.6455V9.59486C8.64181 8.82266 8.1497 8.30316 7.35715 8.29612C6.94015 8.28908 6.50906 8.41895 6.20863 8.87742C5.98331 8.51518 5.62733 8.29612 5.12817 8.29612C4.78002 8.29612 4.43812 8.39861 4.17133 8.78119V8.37827H3.46094V11.6455H4.17837V9.83426C4.17837 9.26704 4.49289 8.96583 4.97796 8.96583C5.44973 8.96583 5.68913 9.2733 5.68913 9.82722V11.6455H6.40657V9.83426C6.40657 9.26704 6.73517 8.96583 7.20615 8.96583C7.69201 8.96583 7.92437 9.2733 7.92437 9.82722V11.6455H8.64181Z" fill="white"/>
</svg>
