<svg width="39" height="12" viewBox="0 0 39 12" fill="none" xmlns="http://www.w3.org/2000/svg">
<path d="M17.3578 11.454H14.2795L16.2049 0.418457H19.283L17.3578 11.454Z" fill="#00579F"/>
<path d="M28.5167 0.688575C27.9095 0.465287 26.9465 0.21875 25.7557 0.21875C22.7158 0.21875 20.5752 1.72138 20.562 3.86968C20.5368 5.4547 22.0947 6.33505 23.2599 6.86355C24.4508 7.40359 24.8556 7.75607 24.8556 8.23745C24.8435 8.97674 23.8933 9.31753 23.007 9.31753C21.778 9.31753 21.1195 9.14183 20.1188 8.73052L19.7135 8.5542L19.2827 11.0314C20.0047 11.3363 21.3348 11.6069 22.7158 11.6187C25.9458 11.6187 28.0485 10.1394 28.0735 7.85001C28.0857 6.59376 27.2631 5.63117 25.4896 4.8446C24.4129 4.33966 23.7536 3.99919 23.7536 3.48256C23.7662 3.01289 24.3113 2.53183 25.5266 2.53183C26.5273 2.50827 27.2626 2.73124 27.8196 2.95438L28.098 3.07156L28.5167 0.688575Z" fill="#00579F"/>
<path d="M32.608 7.54447C32.8615 6.9105 33.837 4.45683 33.837 4.45683C33.8242 4.48039 34.09 3.81115 34.242 3.40031L34.4572 4.35119C34.4572 4.35119 35.0401 6.99273 35.1667 7.54447C34.6856 7.54447 33.2161 7.54447 32.608 7.54447ZM36.4078 0.418457H34.0267C33.2925 0.418457 32.7346 0.617871 32.4178 1.33408L27.8455 11.4538H31.0754C31.0754 11.4538 31.6071 10.0918 31.7214 9.79841C32.0758 9.79841 35.2178 9.79841 35.6737 9.79841C35.7621 10.1859 36.041 11.4538 36.041 11.4538H38.8912L36.4078 0.418457Z" fill="#00579F"/>
<path d="M11.7084 0.418457L8.69373 7.94361L8.36431 6.41742C7.80696 4.6564 6.05902 2.74308 4.1084 1.79173L6.8697 11.4423H10.1249L14.9634 0.418457H11.7084Z" fill="#00579F"/>
<path d="M5.89441 0.418457H0.941781L0.891113 0.641432C4.75447 1.55721 7.3131 3.76465 8.36433 6.41789L7.28768 1.34609C7.11043 0.641277 6.56571 0.441706 5.89441 0.418457Z" fill="#FAA61A"/>
</svg>
