<svg width="39" height="16" viewBox="0 0 39 16" fill="none" xmlns="http://www.w3.org/2000/svg">
<path d="M18.0221 7.48866V11.9119H16.6189V0.988527H20.3405C20.7847 0.979248 21.2264 1.05803 21.64 1.22034C22.0536 1.38265 22.431 1.62526 22.7504 1.93418C23.0729 2.22434 23.3297 2.58019 23.5033 2.97782C23.6769 3.37544 23.7635 3.80563 23.757 4.23947C23.7663 4.67562 23.6811 5.10862 23.5073 5.50878C23.3336 5.90894 23.0754 6.2668 22.7504 6.55783C22.0996 7.17839 21.2963 7.48837 20.3405 7.48779H18.0221V7.48866ZM18.0221 2.33335V6.14645H20.3753C20.6333 6.1541 20.8901 6.10782 21.1291 6.01057C21.3682 5.91332 21.5844 5.76724 21.7637 5.58168C21.9422 5.40818 22.0841 5.20066 22.1809 4.9714C22.2778 4.74213 22.3277 4.49577 22.3277 4.24688C22.3277 3.99799 22.2778 3.75162 22.1809 3.52235C22.0841 3.29309 21.9422 3.08557 21.7637 2.91207C21.5866 2.7226 21.3712 2.57294 21.1319 2.47302C20.8925 2.3731 20.6346 2.32519 20.3753 2.33248H18.0221V2.33335Z" fill="#5F6368"/>
<path d="M26.9906 4.19434C28.0278 4.19434 28.8464 4.47149 29.4467 5.02581C30.0469 5.58013 30.3467 6.34013 30.3461 7.30583V11.9121H29.0039V10.8749H28.9429C28.3619 11.729 27.5891 12.1561 26.6245 12.1561C25.8012 12.1561 25.1124 11.9121 24.5581 11.424C24.292 11.2 24.0794 10.9194 23.9355 10.6028C23.7917 10.2861 23.7203 9.94141 23.7266 9.59369C23.7266 8.82032 24.0188 8.20528 24.6034 7.74858C25.1879 7.29188 25.9682 7.06295 26.9444 7.06179C27.7776 7.06179 28.4638 7.21431 29.003 7.51936V7.19862C29.0046 6.96157 28.9534 6.72714 28.8532 6.51232C28.7529 6.29751 28.6062 6.10769 28.4234 5.95664C28.0524 5.62185 27.5688 5.43918 27.069 5.44503C26.2852 5.44503 25.6649 5.77565 25.2082 6.43688L23.9724 5.65857C24.6522 4.68241 25.6583 4.19434 26.9906 4.19434ZM25.1751 9.62419C25.1742 9.80278 25.2159 9.979 25.2969 10.1382C25.3778 10.2974 25.4957 10.4349 25.6405 10.5393C25.9509 10.7835 26.3361 10.9128 26.7309 10.9054C27.323 10.9044 27.8906 10.6687 28.3093 10.25C28.7741 9.81245 29.0065 9.2991 29.0065 8.70992C28.569 8.36129 27.9589 8.18698 27.1762 8.18698C26.6062 8.18698 26.1309 8.3244 25.7504 8.59923C25.366 8.87813 25.1751 9.21717 25.1751 9.62419Z" fill="#5F6368"/>
<path d="M38.0508 4.43848L33.3652 15.2067H31.9167L33.6554 11.4389L30.5745 4.43848H32.0997L34.3266 9.80732H34.3571L36.5229 4.43848H38.0508Z" fill="#5F6368"/>
<path d="M12.3517 6.53525C12.3522 6.10762 12.3161 5.68073 12.2436 5.25928H6.32568V7.67613H9.7152C9.64584 8.06214 9.49904 8.4301 9.28364 8.75784C9.06824 9.08558 8.78871 9.36632 8.46189 9.58312V11.1519H10.4848C11.6693 10.0599 12.3517 8.44485 12.3517 6.53525Z" fill="#4285F4"/>
<path d="M6.32578 12.6675C8.01923 12.6675 9.44511 12.1115 10.4849 11.1527L8.46199 9.58392C7.89895 9.96566 7.17381 10.1836 6.32578 10.1836C4.68898 10.1836 3.2997 9.08015 2.80291 7.59326H0.718994V9.21002C1.24129 10.2493 2.04219 11.123 3.03225 11.7336C4.02232 12.3441 5.1626 12.6675 6.32578 12.6675Z" fill="#34A853"/>
<path d="M2.8029 7.5935C2.54026 6.81436 2.54026 5.9706 2.8029 5.19146V3.57471H0.718986C0.279609 4.44902 0.0507812 5.41397 0.0507812 6.39248C0.0507812 7.37099 0.279609 8.33594 0.718986 9.21025L2.8029 7.5935Z" fill="#FBBC04"/>
<path d="M6.32578 2.60107C7.22069 2.58645 8.08541 2.92458 8.73304 3.54236L10.5241 1.7513C9.38839 0.684566 7.8838 0.0989135 6.32578 0.117111C5.1626 0.117164 4.02232 0.44051 3.03225 1.05105C2.04219 1.66159 1.24129 2.53529 0.718994 3.57461L2.80291 5.19137C3.2997 3.70448 4.68898 2.60107 6.32578 2.60107Z" fill="#EA4335"/>
</svg>
