<svg width="38" height="16" viewBox="0 0 38 16" fill="none" xmlns="http://www.w3.org/2000/svg">
<path d="M6.94332 2.19331C6.49795 2.72188 5.78537 3.13879 5.07279 3.07923C4.98372 2.36454 5.33259 1.60517 5.74084 1.13615C6.1862 0.592687 6.96559 0.20556 7.59652 0.175781C7.67074 0.920256 7.38126 1.64984 6.94332 2.19331ZM7.58909 3.22068C6.55734 3.16112 5.67403 3.80882 5.18413 3.80882C4.68681 3.80882 3.93711 3.25046 3.12061 3.26535C2.05916 3.28024 1.07194 3.88326 0.530083 4.84364C-0.583326 6.76438 0.240596 9.60827 1.31689 11.1717C1.8439 11.9459 2.47484 12.7946 3.30618 12.7648C4.09299 12.7351 4.40474 12.2512 5.35485 12.2512C6.31239 12.2512 6.58703 12.7648 7.41837 12.75C8.27941 12.7351 8.82127 11.9757 9.34828 11.2014C9.94952 10.323 10.1945 9.46682 10.2093 9.42215C10.1945 9.40726 8.54663 8.77446 8.53178 6.86861C8.51693 5.27543 9.83076 4.51607 9.89014 4.4714C9.14787 3.36958 7.98992 3.25046 7.58909 3.22068ZM13.5495 1.06171V12.6681H15.3458V8.70001H17.8325C20.1038 8.70001 21.6997 7.13662 21.6997 4.87341C21.6997 2.61021 20.1335 1.06171 17.8918 1.06171H13.5495ZM15.3458 2.58043H17.4168C18.9756 2.58043 19.8663 3.41424 19.8663 4.88086C19.8663 6.34747 18.9756 7.18873 17.4094 7.18873H15.3458V2.58043ZM24.9805 12.7574C26.1088 12.7574 27.1554 12.1842 27.6305 11.2759H27.6676V12.6681H29.3303V6.89094C29.3303 5.21587 27.9942 4.13638 25.9381 4.13638C24.0304 4.13638 22.6201 5.23076 22.5682 6.7346H24.1863C24.3199 6.0199 24.9805 5.55089 25.8861 5.55089C26.9847 5.55089 27.6008 6.06457 27.6008 7.01006V7.6503L25.3591 7.78431C23.2733 7.91087 22.1451 8.76701 22.1451 10.256C22.1451 11.7598 23.3104 12.7574 24.9805 12.7574ZM25.463 11.3801C24.5055 11.3801 23.8968 10.9185 23.8968 10.2113C23.8968 9.48171 24.4832 9.05736 25.604 8.99036L27.6008 8.8638V9.51893C27.6008 10.6059 26.6803 11.3801 25.463 11.3801ZM31.5497 15.8246C33.3014 15.8246 34.1253 15.1546 34.8453 13.1222L38 4.24806H36.174L34.0585 11.1047H34.0214L31.9059 4.24806H30.028L33.0713 12.6978L32.908 13.2115C32.6334 14.0826 32.188 14.4176 31.3938 14.4176C31.2527 14.4176 30.9781 14.4027 30.8668 14.3878V15.78C30.9707 15.8097 31.416 15.8246 31.5497 15.8246Z" fill="#888888"/>
</svg>
