<svg width="28" height="25" viewBox="0 0 28 25" fill="none" xmlns="http://www.w3.org/2000/svg">
<path d="M3.77257 17.5615H1.69988C1.55804 17.5615 1.43742 17.6646 1.41529 17.8046L0.577005 23.1195C0.560336 23.2244 0.641559 23.3189 0.747936 23.3189H1.73746C1.87929 23.3189 1.99992 23.2159 2.02204 23.0756L2.24813 21.6421C2.26995 21.5017 2.39088 21.3987 2.53241 21.3987H3.18855C4.55388 21.3987 5.34186 20.738 5.54765 19.4287C5.64039 18.8559 5.55159 18.4059 5.28337 18.0907C4.98879 17.7446 4.4663 17.5615 3.77257 17.5615ZM4.01169 19.5027C3.89834 20.2464 3.33009 20.2464 2.78062 20.2464H2.46785L2.68728 18.8574C2.70031 18.7735 2.77305 18.7117 2.85791 18.7117H3.00126C3.37555 18.7117 3.72862 18.7117 3.91107 18.925C4.01987 19.0523 4.05321 19.2414 4.01169 19.5027Z" fill="#253B80"/>
<path d="M9.96834 19.4781H8.97579C8.89123 19.4781 8.81819 19.5399 8.80516 19.6239L8.76122 19.9015L8.69181 19.8009C8.47694 19.489 7.99778 19.3848 7.51954 19.3848C6.42273 19.3848 5.48594 20.2155 5.3035 21.3808C5.20864 21.9621 5.3435 22.5179 5.67324 22.9055C5.9757 23.2619 6.40849 23.4104 6.9234 23.4104C7.80715 23.4104 8.29722 22.8422 8.29722 22.8422L8.25297 23.118C8.2363 23.2234 8.31752 23.318 8.42329 23.318H9.31735C9.45949 23.318 9.5795 23.215 9.60193 23.0746L10.1384 19.6775C10.1553 19.573 10.0744 19.4781 9.96834 19.4781ZM8.58483 21.4099C8.48906 21.9769 8.039 22.3576 7.46499 22.3576C7.17677 22.3576 6.94644 22.2651 6.79854 22.09C6.65185 21.916 6.59609 21.6684 6.64276 21.3926C6.73217 20.8304 7.1898 20.4373 7.75503 20.4373C8.03688 20.4373 8.266 20.531 8.41693 20.7077C8.56816 20.8862 8.62817 21.1353 8.58483 21.4099Z" fill="#253B80"/>
<path d="M15.2544 19.478H14.257C14.1619 19.478 14.0725 19.5253 14.0185 19.6044L12.6429 21.6307L12.0598 19.6835C12.0231 19.5617 11.9107 19.478 11.7834 19.478H10.8032C10.6841 19.478 10.6014 19.5944 10.6393 19.7065L11.7379 22.9306L10.7051 24.3887C10.6238 24.5035 10.7057 24.6614 10.846 24.6614H11.8422C11.9367 24.6614 12.0252 24.6154 12.0789 24.5378L15.3963 19.7493C15.4757 19.6347 15.3941 19.478 15.2544 19.478Z" fill="#253B80"/>
<path d="M18.5565 17.561H16.4835C16.342 17.561 16.2214 17.6641 16.1992 17.8041L15.3609 23.119C15.3443 23.2239 15.4255 23.3184 15.5313 23.3184H16.595C16.6938 23.3184 16.7784 23.2463 16.7939 23.1481L17.0318 21.6416C17.0536 21.5012 17.1745 21.3982 17.316 21.3982H17.9719C19.3375 21.3982 20.1252 20.7375 20.3313 19.4282C20.4243 18.8554 20.3349 18.4054 20.0667 18.0902C19.7724 17.7441 19.2502 17.561 18.5565 17.561ZM18.7956 19.5022C18.6826 20.2459 18.1143 20.2459 17.5646 20.2459H17.2521L17.4718 18.857C17.4849 18.773 17.557 18.7112 17.6421 18.7112H17.7855C18.1595 18.7112 18.5129 18.7112 18.6953 18.9245C18.8041 19.0518 18.8371 19.2409 18.7956 19.5022Z" fill="#179BD7"/>
<path d="M24.752 19.4781H23.76C23.6748 19.4781 23.6024 19.5399 23.5897 19.6239L23.5457 19.9015L23.476 19.8009C23.2612 19.489 22.7823 19.3848 22.3041 19.3848C21.2073 19.3848 20.2708 20.2155 20.0883 21.3808C19.9938 21.9621 20.128 22.5179 20.4578 22.9055C20.7608 23.2619 21.193 23.4104 21.7079 23.4104C22.5917 23.4104 23.0817 22.8422 23.0817 22.8422L23.0375 23.118C23.0208 23.2234 23.102 23.318 23.2084 23.318H24.1022C24.2437 23.318 24.3643 23.215 24.3865 23.0746L24.9232 19.6775C24.9396 19.573 24.8583 19.4781 24.752 19.4781ZM23.3684 21.4099C23.2733 21.9769 22.8226 22.3576 22.2486 22.3576C21.961 22.3576 21.7301 22.2651 21.5822 22.09C21.4355 21.916 21.3803 21.6684 21.4264 21.3926C21.5164 20.8304 21.9734 20.4373 22.5386 20.4373C22.8205 20.4373 23.0496 20.531 23.2005 20.7077C23.3524 20.8862 23.4124 21.1353 23.3684 21.4099Z" fill="#179BD7"/>
<path d="M25.9221 17.7066L25.0714 23.1188C25.0547 23.2237 25.1359 23.3183 25.2417 23.3183H26.097C26.2391 23.3183 26.3597 23.2152 26.3816 23.0749L27.2205 17.7603C27.2371 17.6554 27.1559 17.5605 27.0501 17.5605H26.0924C26.0079 17.5608 25.9351 17.6227 25.9221 17.7066Z" fill="#179BD7"/>
<path d="M11.9673 13.6794L12.2009 12.196L11.6807 12.184H9.19666L10.9229 1.23832C10.9283 1.20528 10.9457 1.17447 10.9711 1.15259C10.9966 1.13071 11.0292 1.11865 11.0631 1.11865H15.2515C16.642 1.11865 17.6016 1.408 18.1026 1.9791C18.3375 2.24702 18.487 2.52699 18.5594 2.83509C18.6353 3.15838 18.6366 3.54462 18.5625 4.0157L18.5571 4.05009V4.35194L18.792 4.485C18.9898 4.58993 19.147 4.71005 19.2676 4.84758C19.4685 5.07664 19.5984 5.36778 19.6534 5.71294C19.7101 6.06793 19.6913 6.49034 19.5984 6.96857C19.4913 7.51869 19.318 7.99781 19.084 8.38986C18.8688 8.75109 18.5947 9.05071 18.2691 9.2829C17.9584 9.50349 17.5891 9.67093 17.1716 9.7781C16.767 9.88348 16.3058 9.93662 15.7999 9.93662H15.4739C15.2408 9.93662 15.0144 10.0206 14.8367 10.171C14.6585 10.3246 14.5407 10.5345 14.5045 10.764L14.4799 10.8975L14.0673 13.5119L14.0486 13.6079C14.0437 13.6383 14.0352 13.6535 14.0227 13.6638C14.0115 13.6731 13.9955 13.6794 13.9798 13.6794H11.9673Z" fill="#253B80"/>
<path d="M19.0142 4.08496C19.0017 4.16489 18.9874 4.2466 18.9713 4.33055C18.419 7.16643 16.5293 8.1461 14.1158 8.1461H12.887C12.5919 8.1461 12.3431 8.36043 12.2971 8.65157L11.668 12.6417L11.4898 13.7728C11.4599 13.9639 11.6073 14.1362 11.8002 14.1362H13.9797C14.2377 14.1362 14.457 13.9487 14.4976 13.6942L14.5191 13.5834L14.9294 10.9793L14.9558 10.8364C14.9959 10.581 15.2156 10.3935 15.4737 10.3935H15.7997C17.9113 10.3935 19.5643 9.53613 20.0475 7.05524C20.2493 6.01886 20.1448 5.15349 19.6108 4.54488C19.4491 4.36136 19.2486 4.20909 19.0142 4.08496Z" fill="#179BD7"/>
<path d="M18.4365 3.85451C18.3521 3.82995 18.265 3.80762 18.1757 3.78753C18.086 3.76788 17.994 3.75047 17.8993 3.73528C17.568 3.6817 17.205 3.65625 16.8161 3.65625H13.5332C13.4524 3.65625 13.3756 3.67456 13.3068 3.7076C13.1555 3.78038 13.0429 3.92372 13.0157 4.0992L12.3173 8.52247L12.2972 8.65152C12.3432 8.36038 12.5919 8.14605 12.8871 8.14605H14.1159C16.5294 8.14605 18.4191 7.16593 18.9714 4.3305C18.988 4.24656 19.0018 4.16484 19.0143 4.08491C18.8745 4.01079 18.7232 3.94738 18.5602 3.89335C18.52 3.87996 18.4785 3.86701 18.4365 3.85451Z" fill="#222D65"/>
<path d="M13.0157 4.09941C13.0429 3.92393 13.1554 3.78059 13.3068 3.70826C13.376 3.67521 13.4524 3.65691 13.5332 3.65691H16.816C17.205 3.65691 17.568 3.68236 17.8993 3.73594C17.994 3.75112 18.0859 3.76854 18.1757 3.78818C18.265 3.80828 18.3521 3.8306 18.4365 3.85516C18.4784 3.86767 18.52 3.88062 18.5606 3.89356C18.7236 3.94759 18.875 4.01145 19.0147 4.08512C19.179 3.03713 19.0134 2.32358 18.4467 1.67746C17.822 0.966151 16.6946 0.661621 15.2519 0.661621H11.0635C10.7687 0.661621 10.5174 0.875953 10.4718 1.16753L8.72724 12.2257C8.69286 12.4445 8.86164 12.6419 9.08223 12.6419H11.668L12.3173 8.52268L13.0157 4.09941Z" fill="#253B80"/>
</svg>
