<svg width="39" height="12" viewBox="0 0 39 12" fill="none" xmlns="http://www.w3.org/2000/svg">
<path d="M17.2504 11.5409H14.1721L16.0975 0.505371H19.1756L17.2504 11.5409Z" fill="#00579F"/>
<path d="M28.4092 0.775489C27.8021 0.552201 26.8391 0.305664 25.6483 0.305664C22.6084 0.305664 20.4677 1.80829 20.4546 3.9566C20.4294 5.54161 21.9873 6.42197 23.1524 6.95046C24.3434 7.4905 24.7482 7.84299 24.7482 8.32436C24.7361 9.06366 23.7859 9.40444 22.8996 9.40444C21.6706 9.40444 21.0121 9.22875 20.0114 8.81743L19.6061 8.64111L19.1753 11.1183C19.8973 11.4232 21.2274 11.6938 22.6084 11.7057C25.8383 11.7057 27.9411 10.2263 27.966 7.93692C27.9783 6.68068 27.1557 5.71809 25.3822 4.93151C24.3055 4.42658 23.6462 4.08611 23.6462 3.56947C23.6588 3.0998 24.2038 2.61874 25.4192 2.61874C26.4199 2.59518 27.1552 2.81816 27.7122 3.04129L27.9906 3.15847L28.4092 0.775489Z" fill="#00579F"/>
<path d="M32.5006 7.63139C32.7541 6.99741 33.7296 4.54374 33.7296 4.54374C33.7168 4.5673 33.9826 3.89806 34.1346 3.48722L34.3497 4.43811C34.3497 4.43811 34.9327 7.07964 35.0592 7.63139C34.5782 7.63139 33.1086 7.63139 32.5006 7.63139ZM36.3004 0.505371H33.9193C33.1851 0.505371 32.6272 0.704785 32.3104 1.42099L27.738 11.5407H30.968C30.968 11.5407 31.4997 10.1787 31.614 9.88533C31.9684 9.88533 35.1104 9.88533 35.5663 9.88533C35.6546 10.2728 35.9336 11.5407 35.9336 11.5407H38.7837L36.3004 0.505371Z" fill="#00579F"/>
<path d="M11.6009 0.505371L8.58631 8.03052L8.25688 6.50434C7.69954 4.74331 5.95159 2.83 4.00098 1.87865L6.76227 11.5292H10.0175L14.856 0.505371H11.6009Z" fill="#00579F"/>
<path d="M5.78699 0.505371H0.834359L0.783691 0.728347C4.64705 1.64412 7.20568 3.85157 8.2569 6.5048L7.18026 1.43301C7.00301 0.728191 6.45829 0.52862 5.78699 0.505371Z" fill="#FAA61A"/>
</svg>
