<svg width="28" height="25" viewBox="0 0 28 25" fill="none" xmlns="http://www.w3.org/2000/svg">
<path d="M3.87987 17.5615H1.80718C1.66534 17.5615 1.54472 17.6646 1.52259 17.8046L0.684305 23.1195C0.667636 23.2244 0.748858 23.3189 0.855236 23.3189H1.84476C1.98659 23.3189 2.10722 23.2159 2.12934 23.0756L2.35543 21.6421C2.37725 21.5017 2.49818 21.3987 2.63971 21.3987H3.29585C4.66118 21.3987 5.44916 20.738 5.65495 19.4287C5.74769 18.8559 5.65889 18.4059 5.39067 18.0907C5.09609 17.7446 4.57359 17.5615 3.87987 17.5615ZM4.11899 19.5027C4.00564 20.2464 3.43739 20.2464 2.88792 20.2464H2.57515L2.79458 18.8574C2.80761 18.7735 2.88035 18.7117 2.96521 18.7117H3.10856C3.48285 18.7117 3.83592 18.7117 4.01837 18.925C4.12717 19.0523 4.16051 19.2414 4.11899 19.5027Z" fill="#253B80"/>
<path d="M10.0756 19.4781H9.08309C8.99853 19.4781 8.92549 19.5399 8.91246 19.6239L8.86852 19.9015L8.79911 19.8009C8.58424 19.489 8.10508 19.3848 7.62684 19.3848C6.53003 19.3848 5.59324 20.2155 5.4108 21.3808C5.31594 21.9621 5.4508 22.5179 5.78054 22.9055C6.083 23.2619 6.51579 23.4104 7.0307 23.4104C7.91445 23.4104 8.40452 22.8422 8.40452 22.8422L8.36027 23.118C8.3436 23.2234 8.42482 23.318 8.53059 23.318H9.42465C9.56679 23.318 9.6868 23.215 9.70923 23.0746L10.2457 19.6775C10.2626 19.573 10.1817 19.4781 10.0756 19.4781ZM8.69213 21.4099C8.59636 21.9769 8.1463 22.3576 7.57229 22.3576C7.28407 22.3576 7.05374 22.2651 6.90584 22.09C6.75915 21.916 6.70339 21.6684 6.75006 21.3926C6.83946 20.8304 7.2971 20.4373 7.86232 20.4373C8.14418 20.4373 8.3733 20.531 8.52423 20.7077C8.67546 20.8862 8.73547 21.1353 8.69213 21.4099Z" fill="#253B80"/>
<path d="M15.3617 19.478H14.3643C14.2692 19.478 14.1798 19.5253 14.1258 19.6044L12.7502 21.6307L12.1671 19.6835C12.1304 19.5617 12.018 19.478 11.8907 19.478H10.9105C10.7914 19.478 10.7087 19.5944 10.7466 19.7065L11.8452 22.9306L10.8124 24.3887C10.7311 24.5035 10.813 24.6614 10.9533 24.6614H11.9495C12.044 24.6614 12.1325 24.6154 12.1862 24.5378L15.5036 19.7493C15.583 19.6347 15.5014 19.478 15.3617 19.478Z" fill="#253B80"/>
<path d="M18.6638 17.561H16.5908C16.4493 17.561 16.3287 17.6641 16.3065 17.8041L15.4682 23.119C15.4516 23.2239 15.5328 23.3184 15.6386 23.3184H16.7023C16.8011 23.3184 16.8857 23.2463 16.9012 23.1481L17.1391 21.6416C17.1609 21.5012 17.2818 21.3982 17.4233 21.3982H18.0792C19.4448 21.3982 20.2325 20.7375 20.4386 19.4282C20.5316 18.8554 20.4422 18.4054 20.174 18.0902C19.8797 17.7441 19.3575 17.561 18.6638 17.561ZM18.9029 19.5022C18.7899 20.2459 18.2216 20.2459 17.6719 20.2459H17.3594L17.5791 18.857C17.5922 18.773 17.6643 18.7112 17.7494 18.7112H17.8928C18.2668 18.7112 18.6202 18.7112 18.8026 18.9245C18.9114 19.0518 18.9444 19.2409 18.9029 19.5022Z" fill="#179BD7"/>
<path d="M24.8593 19.4781H23.8673C23.7821 19.4781 23.7097 19.5399 23.697 19.6239L23.653 19.9015L23.5833 19.8009C23.3685 19.489 22.8896 19.3848 22.4114 19.3848C21.3146 19.3848 20.3781 20.2155 20.1956 21.3808C20.1011 21.9621 20.2353 22.5179 20.5651 22.9055C20.8681 23.2619 21.3003 23.4104 21.8152 23.4104C22.699 23.4104 23.189 22.8422 23.189 22.8422L23.1448 23.118C23.1281 23.2234 23.2093 23.318 23.3157 23.318H24.2095C24.351 23.318 24.4716 23.215 24.4938 23.0746L25.0305 19.6775C25.0469 19.573 24.9656 19.4781 24.8593 19.4781ZM23.4757 21.4099C23.3806 21.9769 22.9299 22.3576 22.3559 22.3576C22.0683 22.3576 21.8374 22.2651 21.6895 22.09C21.5428 21.916 21.4876 21.6684 21.5337 21.3926C21.6237 20.8304 22.0807 20.4373 22.6459 20.4373C22.9278 20.4373 23.1569 20.531 23.3078 20.7077C23.4597 20.8862 23.5197 21.1353 23.4757 21.4099Z" fill="#179BD7"/>
<path d="M26.0294 17.7066L25.1787 23.1188C25.162 23.2237 25.2432 23.3183 25.349 23.3183H26.2043C26.3464 23.3183 26.467 23.2152 26.4889 23.0749L27.3278 17.7603C27.3444 17.6554 27.2632 17.5605 27.1574 17.5605H26.1997C26.1152 17.5608 26.0424 17.6227 26.0294 17.7066Z" fill="#179BD7"/>
<path d="M12.0746 13.6794L12.3082 12.196L11.788 12.184H9.30396L11.0302 1.23832C11.0356 1.20528 11.053 1.17447 11.0784 1.15259C11.1039 1.13071 11.1365 1.11865 11.1704 1.11865H15.3588C16.7493 1.11865 17.7089 1.408 18.2099 1.9791C18.4448 2.24702 18.5943 2.52699 18.6667 2.83509C18.7426 3.15838 18.7439 3.54462 18.6698 4.0157L18.6644 4.05009V4.35194L18.8993 4.485C19.0971 4.58993 19.2543 4.71005 19.3749 4.84758C19.5758 5.07664 19.7057 5.36778 19.7607 5.71294C19.8174 6.06793 19.7986 6.49034 19.7057 6.96857C19.5986 7.51869 19.4253 7.99781 19.1913 8.38986C18.9761 8.75109 18.702 9.05071 18.3764 9.2829C18.0657 9.50349 17.6964 9.67093 17.2789 9.7781C16.8743 9.88348 16.4131 9.93662 15.9072 9.93662H15.5812C15.3481 9.93662 15.1217 10.0206 14.944 10.171C14.7658 10.3246 14.648 10.5345 14.6118 10.764L14.5872 10.8975L14.1746 13.5119L14.1559 13.6079C14.151 13.6383 14.1425 13.6535 14.13 13.6638C14.1188 13.6731 14.1028 13.6794 14.0871 13.6794H12.0746Z" fill="#253B80"/>
<path d="M19.1215 4.08496C19.109 4.16489 19.0947 4.2466 19.0786 4.33055C18.5263 7.16643 16.6366 8.1461 14.2231 8.1461H12.9943C12.6992 8.1461 12.4504 8.36043 12.4044 8.65157L11.7753 12.6417L11.5971 13.7728C11.5672 13.9639 11.7146 14.1362 11.9075 14.1362H14.087C14.345 14.1362 14.5643 13.9487 14.6049 13.6942L14.6264 13.5834L15.0367 10.9793L15.0631 10.8364C15.1032 10.581 15.3229 10.3935 15.581 10.3935H15.907C18.0186 10.3935 19.6716 9.53613 20.1548 7.05524C20.3566 6.01886 20.2521 5.15349 19.7181 4.54488C19.5564 4.36136 19.3559 4.20909 19.1215 4.08496Z" fill="#179BD7"/>
<path d="M18.5438 3.85451C18.4594 3.82995 18.3723 3.80762 18.283 3.78753C18.1933 3.76788 18.1013 3.75047 18.0066 3.73528C17.6753 3.6817 17.3123 3.65625 16.9234 3.65625H13.6405C13.5597 3.65625 13.4829 3.67456 13.4141 3.7076C13.2628 3.78038 13.1502 3.92372 13.123 4.0992L12.4246 8.52247L12.4045 8.65152C12.4505 8.36038 12.6992 8.14605 12.9944 8.14605H14.2232C16.6367 8.14605 18.5264 7.16593 19.0787 4.3305C19.0953 4.24656 19.1091 4.16484 19.1216 4.08491C18.9818 4.01079 18.8305 3.94738 18.6675 3.89335C18.6273 3.87996 18.5858 3.86701 18.5438 3.85451Z" fill="#222D65"/>
<path d="M13.123 4.09941C13.1502 3.92393 13.2627 3.78059 13.4141 3.70826C13.4833 3.67521 13.5597 3.65691 13.6405 3.65691H16.9233C17.3123 3.65691 17.6753 3.68236 18.0066 3.73594C18.1013 3.75112 18.1932 3.76854 18.283 3.78818C18.3723 3.80828 18.4594 3.8306 18.5438 3.85516C18.5857 3.86767 18.6273 3.88062 18.6679 3.89356C18.8309 3.94759 18.9823 4.01145 19.122 4.08512C19.2863 3.03713 19.1207 2.32358 18.554 1.67746C17.9293 0.966151 16.8019 0.661621 15.3592 0.661621H11.1708C10.876 0.661621 10.6247 0.875953 10.5791 1.16753L8.83454 12.2257C8.80016 12.4445 8.96894 12.6419 9.18953 12.6419H11.7753L12.4246 8.52268L13.123 4.09941Z" fill="#253B80"/>
</svg>
