<svg width="39" height="8" viewBox="0 0 39 8" fill="none" xmlns="http://www.w3.org/2000/svg">
<path d="M2.42474 0.978516H0.703003V6.99166H2.41561C3.32628 6.99166 3.98387 6.77682 4.56108 6.29748C5.24701 5.72987 5.65268 4.87424 5.65268 3.98922C5.65288 2.21486 4.32693 0.978516 2.42474 0.978516ZM3.79496 5.49572C3.42635 5.82851 2.94778 5.97363 2.18991 5.97363H1.87519V1.99742H2.18991C2.94778 1.99742 3.40762 2.13293 3.79496 2.48368C4.20064 2.84479 4.44458 3.40462 4.44458 3.98048C4.44458 4.55788 4.20064 5.1347 3.79496 5.49572Z" fill="#231F20"/>
<path d="M7.36546 0.978516H6.1925V6.99166H7.36546V0.978516Z" fill="#231F20"/>
<path d="M10.2335 3.2858C9.52968 3.02543 9.323 2.85361 9.323 2.5288C9.323 2.14992 9.69122 1.86227 10.1967 1.86227C10.5482 1.86227 10.8369 2.00662 11.1425 2.3492L11.7562 1.54563C11.2519 1.10441 10.6485 0.878906 9.98924 0.878906C8.92529 0.878906 8.11374 1.61775 8.11374 2.60189C8.11374 3.43034 8.49157 3.85446 9.59317 4.25082C10.0524 4.41275 10.2861 4.5206 10.404 4.59321C10.6384 4.7462 10.7557 4.96297 10.7557 5.21536C10.7557 5.70258 10.3684 6.06351 9.84508 6.06351C9.28564 6.06351 8.83502 5.78374 8.56504 5.26156L7.80737 5.99128C8.3478 6.78449 8.99675 7.1361 9.88926 7.1361C11.1081 7.1361 11.9632 6.3257 11.9632 5.16168C11.963 4.20626 11.5678 3.77369 10.2335 3.2858Z" fill="#231F20"/>
<path d="M12.3331 3.98918C12.3331 5.75662 13.7211 7.12713 15.5071 7.12713C16.0121 7.12713 16.4445 7.02783 16.9777 6.77678V5.39608C16.5087 5.86544 16.0934 6.05464 15.5618 6.05464C14.3804 6.05464 13.5421 5.19814 13.5421 3.98044C13.5421 2.82602 14.407 1.91516 15.5073 1.91516C16.0667 1.91516 16.4902 2.11483 16.9779 2.59177V1.21166C16.463 0.950428 16.0397 0.842285 15.535 0.842285C13.7576 0.842573 12.3331 2.24094 12.3331 3.98918Z" fill="#231F20"/>
<path d="M26.2774 5.01753L24.6738 0.978516H23.3925L25.9445 7.146H26.5756L29.1733 0.978516H27.9018L26.2774 5.01753Z" fill="#231F20"/>
<path d="M29.7036 6.99166H33.03V5.97382H30.8756V4.35072H32.9506V3.3321H30.8756V1.99742H33.03V0.978516H29.7036V6.99166Z" fill="#231F20"/>
<path d="M37.674 2.75374C37.674 1.62795 36.8985 0.978516 35.5459 0.978516H33.8068V6.99166H34.9783V4.57613H35.1313L36.7547 6.99176H38.1971L36.3042 4.45838C37.1875 4.27878 37.674 3.67449 37.674 2.75374ZM35.3209 3.74691H34.9784V1.92568H35.3395C36.07 1.92568 36.4671 2.23176 36.4671 2.81694C36.4671 3.42152 36.0701 3.74691 35.3209 3.74691Z" fill="#231F20"/>
<path d="M20.5594 7.20483C22.3261 7.20483 23.7583 5.77265 23.7583 4.00598C23.7583 2.2393 22.3261 0.807129 20.5594 0.807129C18.7928 0.807129 17.3606 2.2393 17.3606 4.00598C17.3606 5.77265 18.7928 7.20483 20.5594 7.20483Z" fill="url(#paint0_linear_1174_143)"/>
<path opacity="0.65" d="M20.5594 7.20483C22.3261 7.20483 23.7583 5.77265 23.7583 4.00598C23.7583 2.2393 22.3261 0.807129 20.5594 0.807129C18.7928 0.807129 17.3606 2.2393 17.3606 4.00598C17.3606 5.77265 18.7928 7.20483 20.5594 7.20483Z" fill="url(#paint1_linear_1174_143)"/>
<path d="M38.4227 1.20458C38.4227 1.09913 38.3501 1.0415 38.2226 1.0415H38.0529V1.57002H38.179V1.36497L38.3269 1.57002H38.4808L38.307 1.3521C38.3817 1.33213 38.4227 1.27796 38.4227 1.20458ZM38.2004 1.27681H38.1791V1.1386H38.2017C38.2641 1.1386 38.2966 1.16108 38.2966 1.2066C38.2966 1.25318 38.2637 1.27681 38.2004 1.27681Z" fill="#231F20"/>
<path d="M38.2482 0.844238C37.9915 0.844238 37.7878 1.049 37.7878 1.30495C37.7878 1.5608 37.9939 1.76585 38.2482 1.76585C38.4982 1.76585 38.703 1.5585 38.703 1.30495C38.703 1.05246 38.4981 0.844238 38.2482 0.844238ZM38.2462 1.68345C38.0442 1.68345 37.879 1.51538 37.879 1.30562C37.879 1.09519 38.0421 0.927218 38.2462 0.927218C38.4472 0.927218 38.611 1.09904 38.611 1.30562C38.611 1.51355 38.4474 1.68345 38.2462 1.68345Z" fill="#231F20"/>
<defs>
<linearGradient id="paint0_linear_1174_143" x1="22.1968" y1="6.56963" x2="19.9819" y2="3.10181" gradientUnits="userSpaceOnUse">
<stop stop-color="#F89F21"/>
<stop offset="0.2502" stop-color="#F79A23"/>
<stop offset="0.5331" stop-color="#F78E22"/>
<stop offset="0.6196" stop-color="#F68721"/>
<stop offset="0.7232" stop-color="#F48220"/>
<stop offset="1" stop-color="#F27623"/>
</linearGradient>
<linearGradient id="paint1_linear_1174_143" x1="21.8469" y1="6.52248" x2="18.6099" y2="0.195413" gradientUnits="userSpaceOnUse">
<stop stop-color="#F68721" stop-opacity="0"/>
<stop offset="0.3587" stop-color="#E27027" stop-opacity="0.2704"/>
<stop offset="0.703" stop-color="#D4612C" stop-opacity="0.5299"/>
<stop offset="0.9816" stop-color="#D15D2D" stop-opacity="0.74"/>
</linearGradient>
</defs>
</svg>
