<svg width="51" height="33" viewBox="0 0 51 33" fill="none" xmlns="http://www.w3.org/2000/svg">
<path d="M29.416 24.7834H20.6667V9.05957H29.416V24.7834Z" fill="#FF5F00"/>
<path d="M21.2273 16.9204C21.2273 13.7308 22.7207 10.8895 25.0463 9.0585C23.3456 7.71957 21.1993 6.92041 18.8666 6.92041C13.3444 6.92041 8.86792 11.3975 8.86792 16.9204C8.86792 22.4433 13.3444 26.9204 18.8666 26.9204C21.1993 26.9204 23.3456 26.1212 25.0463 24.7823C22.7207 22.9513 21.2273 20.1101 21.2273 16.9204Z" fill="#EB001B"/>
<path d="M41.2159 16.9204C41.2159 22.4433 36.7395 26.9204 31.2172 26.9204C28.8845 26.9204 26.7382 26.1212 25.0369 24.7823C27.3631 22.9513 28.8566 20.1101 28.8566 16.9204C28.8566 13.7308 27.3631 10.8895 25.0369 9.0585C26.7382 7.71957 28.8845 6.92041 31.2172 6.92041C36.7395 6.92041 41.2159 11.3975 41.2159 16.9204Z" fill="#F79E1B"/>
<path d="M16.3918 16.9835C16.3918 16.5467 16.6781 16.1879 17.1458 16.1879C17.5927 16.1879 17.8944 16.5313 17.8944 16.9835C17.8944 17.4358 17.5927 17.7792 17.1458 17.7792C16.6781 17.7792 16.3918 17.4203 16.3918 16.9835ZM18.4038 16.9835V15.741H17.8635V16.0427C17.6921 15.8189 17.432 15.6785 17.0786 15.6785C16.3817 15.6785 15.8354 16.2248 15.8354 16.9835C15.8354 17.7429 16.3817 18.2886 17.0786 18.2886C17.432 18.2886 17.6921 18.1481 17.8635 17.9244V18.2261H18.4038V16.9835ZM36.6636 16.9835C36.6636 16.5467 36.9499 16.1879 37.4176 16.1879C37.8651 16.1879 38.1662 16.5313 38.1662 16.9835C38.1662 17.4358 37.8651 17.7792 37.4176 17.7792C36.9499 17.7792 36.6636 17.4203 36.6636 16.9835ZM38.6762 16.9835V14.743H38.1353V16.0427C37.9639 15.8189 37.7038 15.6785 37.3504 15.6785C36.6535 15.6785 36.1072 16.2248 36.1072 16.9835C36.1072 17.7429 36.6535 18.2886 37.3504 18.2886C37.7038 18.2886 37.9639 18.1481 38.1353 17.9244V18.2261H38.6762V16.9835ZM25.1111 16.1623C25.4592 16.1623 25.683 16.3807 25.7401 16.7651H24.4506C24.5083 16.4063 24.7261 16.1623 25.1111 16.1623ZM25.1218 15.6785C24.3934 15.6785 23.884 16.2087 23.884 16.9835C23.884 17.7738 24.4143 18.2886 25.1581 18.2886C25.5324 18.2886 25.8752 18.1951 26.1769 17.9404L25.9121 17.5399C25.7038 17.706 25.4384 17.8 25.1891 17.8C24.8409 17.8 24.5237 17.6387 24.4458 17.1912H26.2912C26.2965 17.124 26.3019 17.0561 26.3019 16.9835C26.2965 16.2087 25.8181 15.6785 25.1218 15.6785ZM31.6464 16.9835C31.6464 16.5467 31.9326 16.1879 32.4004 16.1879C32.8473 16.1879 33.149 16.5313 33.149 16.9835C33.149 17.4358 32.8473 17.7792 32.4004 17.7792C31.9326 17.7792 31.6464 17.4203 31.6464 16.9835ZM33.6584 16.9835V15.741H33.1181V16.0427C32.9461 15.8189 32.6866 15.6785 32.3331 15.6785C31.6363 15.6785 31.09 16.2248 31.09 16.9835C31.09 17.7429 31.6363 18.2886 32.3331 18.2886C32.6866 18.2886 32.9461 18.1481 33.1181 17.9244V18.2261H33.6584V16.9835ZM28.5948 16.9835C28.5948 17.7375 29.1196 18.2886 29.9206 18.2886C30.2949 18.2886 30.5443 18.2053 30.8145 17.9922L30.555 17.5554C30.3521 17.7012 30.139 17.7792 29.9046 17.7792C29.4731 17.7738 29.1559 17.462 29.1559 16.9835C29.1559 16.5051 29.4731 16.1933 29.9046 16.1879C30.139 16.1879 30.3521 16.2659 30.555 16.4117L30.8145 15.9749C30.5443 15.7618 30.2949 15.6785 29.9206 15.6785C29.1196 15.6785 28.5948 16.2296 28.5948 16.9835ZM35.5615 15.6785C35.2497 15.6785 35.0468 15.8243 34.9063 16.0427V15.741H34.3707V18.2261H34.9117V16.833C34.9117 16.4218 35.0884 16.1933 35.4419 16.1933C35.5514 16.1933 35.6656 16.2087 35.7799 16.2557L35.9465 15.7463C35.8269 15.6993 35.671 15.6785 35.5615 15.6785ZM21.0764 15.9386C20.8163 15.7672 20.4581 15.6785 20.0629 15.6785C19.4333 15.6785 19.0281 15.9802 19.0281 16.4741C19.0281 16.8794 19.3298 17.1293 19.8856 17.2073L20.1409 17.2436C20.4373 17.2852 20.5771 17.3632 20.5771 17.5036C20.5771 17.6959 20.3795 17.8054 20.0106 17.8054C19.6363 17.8054 19.3661 17.6857 19.184 17.5453L18.9293 17.966C19.2256 18.1844 19.6 18.2886 20.0052 18.2886C20.7229 18.2886 21.1389 17.9506 21.1389 17.4775C21.1389 17.0407 20.8116 16.8122 20.2706 16.7342L20.0159 16.6973C19.7821 16.6664 19.5946 16.6199 19.5946 16.4533C19.5946 16.2712 19.7713 16.1623 20.0677 16.1623C20.3849 16.1623 20.692 16.2819 20.8425 16.3754L21.0764 15.9386ZM28.0485 15.6785C27.7366 15.6785 27.5337 15.8243 27.3939 16.0427V15.741H26.8583V18.2261H27.3986V16.833C27.3986 16.4218 27.5754 16.1933 27.9289 16.1933C28.0384 16.1933 28.1526 16.2087 28.2669 16.2557L28.4335 15.7463C28.3139 15.6993 28.158 15.6785 28.0485 15.6785ZM23.4371 15.741H22.5534V14.987H22.0071V15.741H21.5031V16.2349H22.0071V17.3686C22.0071 17.9452 22.2309 18.2886 22.87 18.2886C23.1045 18.2886 23.3746 18.216 23.546 18.0964L23.3901 17.6334C23.2288 17.7268 23.0521 17.7738 22.9116 17.7738C22.6415 17.7738 22.5534 17.6072 22.5534 17.3579V16.2349H23.4371V15.741ZM15.3576 18.2261V16.6664C15.3576 16.079 14.9832 15.6839 14.3798 15.6785C14.0626 15.6731 13.7353 15.7719 13.5062 16.1207C13.3348 15.8451 13.0647 15.6785 12.685 15.6785C12.4196 15.6785 12.1601 15.7565 11.9572 16.0475V15.741H11.4163V18.2261H11.962V16.8485C11.962 16.417 12.2012 16.1879 12.5707 16.1879C12.9296 16.1879 13.1111 16.4218 13.1111 16.8431V18.2261H13.6574V16.8485C13.6574 16.417 13.9067 16.1879 14.2656 16.1879C14.6345 16.1879 14.8113 16.4218 14.8113 16.8431V18.2261H15.3576Z" fill="white"/>
</svg>
