<svg width="51" height="33" viewBox="0 0 51 33" fill="none" xmlns="http://www.w3.org/2000/svg">
<path d="M30.3084 23.8703H21.5592V8.14648H30.3084V23.8703Z" fill="#FF5F00"/>
<path d="M22.1197 16.0073C22.1197 12.8177 23.6131 9.97642 25.9388 8.14541C24.2381 6.80649 22.0917 6.00732 19.7591 6.00732C14.2368 6.00732 9.76038 10.4844 9.76038 16.0073C9.76038 21.5302 14.2368 26.0073 19.7591 26.0073C22.0917 26.0073 24.2381 25.2082 25.9388 23.8692C23.6131 22.0382 22.1197 19.197 22.1197 16.0073Z" fill="#EB001B"/>
<path d="M42.1082 16.0073C42.1082 21.5302 37.6318 26.0073 32.1095 26.0073C29.7769 26.0073 27.6305 25.2082 25.9292 23.8692C28.2555 22.0382 29.7489 19.197 29.7489 16.0073C29.7489 12.8177 28.2555 9.97642 25.9292 8.14541C27.6305 6.80649 29.7769 6.00732 32.1095 6.00732C37.6318 6.00732 42.1082 10.4844 42.1082 16.0073Z" fill="#F79E1B"/>
<path d="M17.2844 16.0705C17.2844 15.6337 17.5706 15.2748 18.0384 15.2748C18.4853 15.2748 18.787 15.6182 18.787 16.0705C18.787 16.5227 18.4853 16.8661 18.0384 16.8661C17.5706 16.8661 17.2844 16.5072 17.2844 16.0705ZM19.2964 16.0705V14.8279H18.7561V15.1296C18.5847 14.9059 18.3246 14.7654 17.9711 14.7654C17.2743 14.7654 16.728 15.3117 16.728 16.0705C16.728 16.8298 17.2743 17.3755 17.9711 17.3755C18.3246 17.3755 18.5847 17.235 18.7561 17.0113V17.313H19.2964V16.0705ZM37.5562 16.0705C37.5562 15.6337 37.8424 15.2748 38.3102 15.2748C38.7577 15.2748 39.0588 15.6182 39.0588 16.0705C39.0588 16.5227 38.7577 16.8661 38.3102 16.8661C37.8424 16.8661 37.5562 16.5072 37.5562 16.0705ZM39.5688 16.0705V13.8299H39.0279V15.1296C38.8565 14.9059 38.5964 14.7654 38.2429 14.7654C37.5461 14.7654 36.9998 15.3117 36.9998 16.0705C36.9998 16.8298 37.5461 17.3755 38.2429 17.3755C38.5964 17.3755 38.8565 17.235 39.0279 17.0113V17.313H39.5688V16.0705ZM26.0037 15.2492C26.3518 15.2492 26.5756 15.4676 26.6327 15.8521H25.3431C25.4009 15.4932 25.6187 15.2492 26.0037 15.2492ZM26.0144 14.7654C25.286 14.7654 24.7766 15.2956 24.7766 16.0705C24.7766 16.8607 25.3068 17.3755 26.0507 17.3755C26.425 17.3755 26.7678 17.2821 27.0695 17.0274L26.8047 16.6269C26.5964 16.7929 26.331 16.8869 26.0816 16.8869C25.7335 16.8869 25.4163 16.7256 25.3384 16.2781H27.1837C27.1891 16.2109 27.1945 16.1431 27.1945 16.0705C27.1891 15.2956 26.7107 14.7654 26.0144 14.7654ZM32.539 16.0705C32.539 15.6337 32.8252 15.2748 33.293 15.2748C33.7399 15.2748 34.0416 15.6182 34.0416 16.0705C34.0416 16.5227 33.7399 16.8661 33.293 16.8661C32.8252 16.8661 32.539 16.5072 32.539 16.0705ZM34.551 16.0705V14.8279H34.0106V15.1296C33.8387 14.9059 33.5792 14.7654 33.2257 14.7654C32.5289 14.7654 31.9826 15.3117 31.9826 16.0705C31.9826 16.8298 32.5289 17.3755 33.2257 17.3755C33.5792 17.3755 33.8387 17.235 34.0106 17.0113V17.313H34.551V16.0705ZM29.4873 16.0705C29.4873 16.8244 30.0122 17.3755 30.8132 17.3755C31.1875 17.3755 31.4369 17.2922 31.707 17.0791L31.4476 16.6423C31.2447 16.7881 31.0316 16.8661 30.7971 16.8661C30.3657 16.8607 30.0485 16.5489 30.0485 16.0705C30.0485 15.592 30.3657 15.2802 30.7971 15.2748C31.0316 15.2748 31.2447 15.3528 31.4476 15.4986L31.707 15.0618C31.4369 14.8487 31.1875 14.7654 30.8132 14.7654C30.0122 14.7654 29.4873 15.3165 29.4873 16.0705ZM36.4541 14.7654C36.1423 14.7654 35.9393 14.9112 35.7989 15.1296V14.8279H35.2633V17.313H35.8042V15.9199C35.8042 15.5087 35.981 15.2802 36.3345 15.2802C36.444 15.2802 36.5582 15.2956 36.6725 15.3427L36.8391 14.8333C36.7195 14.7862 36.5636 14.7654 36.4541 14.7654ZM21.969 15.0255C21.7089 14.8541 21.3507 14.7654 20.9555 14.7654C20.3259 14.7654 19.9207 15.0671 19.9207 15.5611C19.9207 15.9663 20.2224 16.2162 20.7782 16.2942L21.0335 16.3305C21.3298 16.3722 21.4697 16.4501 21.4697 16.5906C21.4697 16.7828 21.2721 16.8923 20.9032 16.8923C20.5288 16.8923 20.2587 16.7727 20.0766 16.6322L19.8219 17.0529C20.1182 17.2713 20.4925 17.3755 20.8978 17.3755C21.6155 17.3755 22.0314 17.0375 22.0314 16.5644C22.0314 16.1276 21.7041 15.8991 21.1632 15.8211L20.9085 15.7842C20.6746 15.7533 20.4872 15.7069 20.4872 15.5402C20.4872 15.3581 20.6639 15.2492 20.9603 15.2492C21.2775 15.2492 21.5845 15.3688 21.7351 15.4623L21.969 15.0255ZM28.9411 14.7654C28.6292 14.7654 28.4263 14.9112 28.2865 15.1296V14.8279H27.7509V17.313H28.2912V15.9199C28.2912 15.5087 28.468 15.2802 28.8214 15.2802C28.9309 15.2802 29.0452 15.2956 29.1595 15.3427L29.3261 14.8333C29.2065 14.7862 29.0506 14.7654 28.9411 14.7654ZM24.3297 14.8279H23.446V14.0739H22.8997V14.8279H22.3956V15.3218H22.8997V16.4555C22.8997 17.0321 23.1234 17.3755 23.7626 17.3755C23.997 17.3755 24.2672 17.3029 24.4386 17.1833L24.2827 16.7203C24.1214 16.8137 23.9447 16.8607 23.8042 16.8607C23.5341 16.8607 23.446 16.6941 23.446 16.4448V15.3218H24.3297V14.8279ZM16.2501 17.313V15.7533C16.2501 15.1659 15.8758 14.7708 15.2724 14.7654C14.9552 14.7601 14.6279 14.8588 14.3988 15.2076C14.2274 14.932 13.9572 14.7654 13.5776 14.7654C13.3122 14.7654 13.0527 14.8434 12.8498 15.1344V14.8279H12.3088V17.313H12.8545V15.9354C12.8545 15.5039 13.0938 15.2748 13.4633 15.2748C13.8222 15.2748 14.0037 15.5087 14.0037 15.93V17.313H14.55V15.9354C14.55 15.5039 14.7993 15.2748 15.1581 15.2748C15.5271 15.2748 15.7038 15.5087 15.7038 15.93V17.313H16.2501Z" fill="white"/>
</svg>
