<svg width="39" height="16" viewBox="0 0 39 16" fill="none" xmlns="http://www.w3.org/2000/svg">
<path d="M7.05074 2.19331C6.60538 2.72188 5.89279 3.13879 5.18021 3.07923C5.09114 2.36454 5.44001 1.60517 5.84826 1.13615C6.29362 0.592687 7.07301 0.20556 7.70394 0.175781C7.77817 0.920256 7.48868 1.64984 7.05074 2.19331ZM7.69652 3.22068C6.66476 3.16112 5.78145 3.80882 5.29155 3.80882C4.79423 3.80882 4.04453 3.25046 3.22804 3.26535C2.16659 3.28024 1.17936 3.88326 0.637504 4.84364C-0.475904 6.76438 0.348018 9.60827 1.42431 11.1717C1.95133 11.9459 2.58226 12.7946 3.4136 12.7648C4.20041 12.7351 4.51217 12.2512 5.46228 12.2512C6.41981 12.2512 6.69445 12.7648 7.52579 12.75C8.38683 12.7351 8.92869 11.9757 9.4557 11.2014C10.0569 10.323 10.3019 9.46682 10.3167 9.42215C10.3019 9.40726 8.65405 8.77446 8.6392 6.86861C8.62436 5.27543 9.93818 4.51607 9.99756 4.4714C9.25529 3.36958 8.09734 3.25046 7.69652 3.22068ZM13.657 1.06171V12.6681H15.4533V8.70001H17.9399C20.2112 8.70001 21.8071 7.13662 21.8071 4.87341C21.8071 2.61021 20.2409 1.06171 17.9993 1.06171H13.657ZM15.4533 2.58043H17.5242C19.083 2.58043 19.9737 3.41424 19.9737 4.88086C19.9737 6.34747 19.083 7.18873 17.5168 7.18873H15.4533V2.58043ZM25.088 12.7574C26.2162 12.7574 27.2628 12.1842 27.7379 11.2759H27.775V12.6681H29.4377V6.89094C29.4377 5.21587 28.1016 4.13638 26.0455 4.13638C24.1379 4.13638 22.7275 5.23076 22.6756 6.7346H24.2937C24.4273 6.0199 25.088 5.55089 25.9935 5.55089C27.0921 5.55089 27.7082 6.06457 27.7082 7.01006V7.6503L25.4665 7.78431C23.3807 7.91087 22.2525 8.76701 22.2525 10.256C22.2525 11.7598 23.4178 12.7574 25.088 12.7574ZM25.5704 11.3801C24.6129 11.3801 24.0042 10.9185 24.0042 10.2113C24.0042 9.48171 24.5906 9.05736 25.7115 8.99036L27.7082 8.8638V9.51893C27.7082 10.6059 26.7878 11.3801 25.5704 11.3801ZM31.6571 15.8246C33.4088 15.8246 34.2328 15.1546 34.9528 13.1222L38.1074 4.24806H36.2814L34.166 11.1047H34.1288L32.0134 4.24806H30.1354L33.1787 12.6978L33.0154 13.2115C32.7408 14.0826 32.2954 14.4176 31.5012 14.4176C31.3602 14.4176 31.0855 14.4027 30.9742 14.3878V15.78C31.0781 15.8097 31.5235 15.8246 31.6571 15.8246Z" fill="#888888"/>
</svg>
