<svg width="39" height="16" viewBox="0 0 39 16" fill="none" xmlns="http://www.w3.org/2000/svg">
<path d="M18.1295 7.48866V11.9119H16.7263V0.988527H20.4479C20.8921 0.979248 21.3338 1.05803 21.7474 1.22034C22.161 1.38265 22.5384 1.62526 22.8578 1.93418C23.1804 2.22434 23.4371 2.58019 23.6107 2.97782C23.7844 3.37544 23.8709 3.80563 23.8644 4.23947C23.8737 4.67562 23.7885 5.10862 23.6147 5.50878C23.441 5.90894 23.1828 6.2668 22.8578 6.55783C22.207 7.17839 21.4037 7.48837 20.4479 7.48779H18.1295V7.48866ZM18.1295 2.33335V6.14645H20.4828C20.7407 6.1541 20.9975 6.10782 21.2366 6.01057C21.4756 5.91332 21.6918 5.76724 21.8712 5.58168C22.0496 5.40818 22.1915 5.20066 22.2883 4.9714C22.3852 4.74213 22.4351 4.49577 22.4351 4.24688C22.4351 3.99799 22.3852 3.75162 22.2883 3.52235C22.1915 3.29309 22.0496 3.08557 21.8712 2.91207C21.694 2.7226 21.4786 2.57294 21.2393 2.47302C20.9999 2.3731 20.742 2.32519 20.4828 2.33248H18.1295V2.33335Z" fill="#5F6368"/>
<path d="M27.0981 4.19434C28.1353 4.19434 28.954 4.47149 29.5542 5.02581C30.1544 5.58013 30.4542 6.34013 30.4537 7.30583V11.9121H29.1115V10.8749H29.0504C28.4694 11.729 27.6966 12.1561 26.7321 12.1561C25.9087 12.1561 25.2199 11.9121 24.6656 11.424C24.3996 11.2 24.1869 10.9194 24.0431 10.6028C23.8992 10.2861 23.8278 9.94141 23.8341 9.59369C23.8341 8.82032 24.1264 8.20528 24.7109 7.74858C25.2954 7.29188 26.0758 7.06295 27.0519 7.06179C27.8852 7.06179 28.5714 7.21431 29.1106 7.51936V7.19862C29.1122 6.96157 29.061 6.72714 28.9607 6.51232C28.8605 6.29751 28.7137 6.10769 28.531 5.95664C28.1599 5.62185 27.6763 5.43918 27.1766 5.44503C26.3927 5.44503 25.7725 5.77565 25.3158 6.43688L24.0799 5.65857C24.7597 4.68241 25.7658 4.19434 27.0981 4.19434ZM25.2827 9.62419C25.2817 9.80278 25.3235 9.979 25.4044 10.1382C25.4854 10.2974 25.6032 10.4349 25.7481 10.5393C26.0584 10.7835 26.4436 10.9128 26.8384 10.9054C27.4305 10.9044 27.9981 10.6687 28.4168 10.25C28.8817 9.81245 29.1141 9.2991 29.1141 8.70992C28.6765 8.36129 28.0664 8.18698 27.2838 8.18698C26.7138 8.18698 26.2385 8.3244 25.8579 8.59923C25.4735 8.87813 25.2827 9.21717 25.2827 9.62419Z" fill="#5F6368"/>
<path d="M38.1582 4.43848L33.4726 15.2067H32.0241L33.7629 11.4389L30.6819 4.43848H32.2071L34.434 9.80732H34.4645L36.6303 4.43848H38.1582Z" fill="#5F6368"/>
<path d="M12.4591 6.53525C12.4596 6.10762 12.4235 5.68073 12.351 5.25928H6.43311V7.67613H9.82262C9.75327 8.06214 9.60646 8.4301 9.39106 8.75784C9.17566 9.08558 8.89613 9.36632 8.56931 9.58312V11.1519H10.5922C11.7767 10.0599 12.4591 8.44485 12.4591 6.53525Z" fill="#4285F4"/>
<path d="M6.4332 12.6675C8.12665 12.6675 9.55253 12.1115 10.5923 11.1527L8.56941 9.58392C8.00638 9.96566 7.28123 10.1836 6.4332 10.1836C4.7964 10.1836 3.40712 9.08015 2.91033 7.59326H0.826416V9.21002C1.34872 10.2493 2.14961 11.123 3.13967 11.7336C4.12974 12.3441 5.27002 12.6675 6.4332 12.6675Z" fill="#34A853"/>
<path d="M2.91032 7.5935C2.64769 6.81436 2.64769 5.9706 2.91032 5.19146V3.57471H0.826408C0.387031 4.44902 0.158203 5.41397 0.158203 6.39248C0.158203 7.37099 0.387031 8.33594 0.826408 9.21025L2.91032 7.5935Z" fill="#FBBC04"/>
<path d="M6.4332 2.60107C7.32811 2.58645 8.19284 2.92458 8.84046 3.54236L10.6315 1.7513C9.49581 0.684566 7.99123 0.0989135 6.4332 0.117111C5.27002 0.117164 4.12974 0.44051 3.13967 1.05105C2.14961 1.66159 1.34872 2.53529 0.826416 3.57461L2.91033 5.19137C3.40712 3.70448 4.7964 2.60107 6.4332 2.60107Z" fill="#EA4335"/>
</svg>
