<svg width="34" height="21" viewBox="0 0 34 21" fill="none" xmlns="http://www.w3.org/2000/svg">
<path d="M21.3459 18.7819H12.5967V3.05811H21.3459V18.7819Z" fill="#6C6BBD"/>
<path d="M13.1572 10.9189C13.1572 7.7293 14.6506 4.88805 16.9762 3.05703C15.2756 1.71811 13.1292 0.918946 10.7966 0.918946C5.2743 0.918946 0.797852 5.39603 0.797852 10.9189C0.797852 16.4419 5.2743 20.9189 10.7966 20.9189C13.1292 20.9189 15.2756 20.1198 16.9762 18.7809C14.6506 16.9498 13.1572 14.1086 13.1572 10.9189Z" fill="#EB001B"/>
<path d="M33.1456 10.9189C33.1456 16.4419 28.6691 20.9189 23.1469 20.9189C20.8142 20.9189 18.6679 20.1198 16.9666 18.7809C19.2928 16.9498 20.7862 14.1086 20.7862 10.9189C20.7862 7.7293 19.2928 4.88805 16.9666 3.05703C18.6679 1.71811 20.8142 0.918946 23.1469 0.918946C28.6691 0.918946 33.1456 5.39603 33.1456 10.9189Z" fill="#0099DF"/>
<path d="M25.9872 9.20921C26.1304 9.20921 26.3362 9.23659 26.4934 9.2984L26.2744 9.96811C26.1242 9.9063 25.9739 9.88596 25.83 9.88596C25.3653 9.88596 25.1329 10.1864 25.1329 10.7262V12.5585H24.4217V9.29136H25.1258V9.68802C25.3105 9.40089 25.5773 9.20921 25.9872 9.20921ZM23.36 9.94072H22.1982V11.4171C22.1982 11.7449 22.314 11.9639 22.67 11.9639C22.8546 11.9639 23.087 11.9021 23.2982 11.7793L23.5032 12.3872C23.2779 12.5445 22.9227 12.6407 22.6152 12.6407C21.7742 12.6407 21.4808 12.1893 21.4808 11.4304V9.94072H20.8173V9.29136H21.4808V8.30009H22.1982V9.29136H23.36V9.94072ZM14.2618 10.6378C14.3377 10.166 14.6241 9.84449 15.1303 9.84449C15.5879 9.84449 15.8821 10.1316 15.9572 10.6378H14.2618ZM16.6958 10.9249C16.6887 9.9063 16.0597 9.20921 15.1436 9.20921C14.1867 9.20921 13.517 9.9063 13.517 10.9249C13.517 11.9632 14.2141 12.6399 15.1921 12.6399C15.6842 12.6399 16.1348 12.5171 16.5315 12.1822L16.1825 11.6557C15.9095 11.8747 15.5606 11.9976 15.2327 11.9976C14.7751 11.9976 14.3581 11.7856 14.2556 11.198H16.6817C16.6887 11.1088 16.6958 11.0204 16.6958 10.9249ZM19.819 10.1254C19.6211 10.0017 19.2182 9.84449 18.8011 9.84449C18.4115 9.84449 18.1792 9.98845 18.1792 10.2279C18.1792 10.4461 18.4248 10.5079 18.7323 10.5486L19.0672 10.5964C19.7783 10.6996 20.2086 11.0001 20.2086 11.5743C20.2086 12.1963 19.6618 12.6407 18.719 12.6407C18.1854 12.6407 17.6933 12.5038 17.3037 12.2166L17.6385 11.6627C17.8779 11.8474 18.2339 12.0046 18.726 12.0046C19.2111 12.0046 19.4709 11.8614 19.4709 11.608C19.4709 11.4241 19.2862 11.3208 18.8966 11.2668L18.5617 11.2191C17.8302 11.1158 17.4336 10.788 17.4336 10.2552C17.4336 9.60587 17.9671 9.20921 18.7941 9.20921C19.3136 9.20921 19.7854 9.32578 20.1265 9.5511L19.819 10.1254ZM28.5855 9.88439C28.4392 9.88439 28.3038 9.91021 28.1779 9.96107C28.0527 10.0127 27.944 10.0847 27.8524 10.177C27.7609 10.2693 27.6889 10.3804 27.6365 10.5095C27.5841 10.6386 27.5582 10.781 27.5582 10.9359C27.5582 11.0916 27.5841 11.2332 27.6365 11.3623C27.6889 11.4914 27.7609 11.6025 27.8524 11.6948C27.944 11.7871 28.0527 11.8591 28.1779 11.9107C28.3038 11.9624 28.4392 11.9874 28.5855 11.9874C28.7318 11.9874 28.8679 11.9624 28.9931 11.9107C29.1191 11.8591 29.2286 11.7871 29.3201 11.6948C29.4132 11.6025 29.4852 11.4914 29.5384 11.3623C29.5908 11.2332 29.6167 11.0916 29.6167 10.9359C29.6167 10.781 29.5908 10.6386 29.5384 10.5095C29.4852 10.3804 29.4132 10.2693 29.3201 10.177C29.2286 10.0847 29.1191 10.0127 28.9931 9.96107C28.8679 9.91021 28.7318 9.88439 28.5855 9.88439ZM28.5855 9.20921C28.839 9.20921 29.0737 9.25302 29.2896 9.34143C29.5056 9.42905 29.6926 9.55032 29.8498 9.70445C30.0078 9.85858 30.1307 10.0409 30.2199 10.2505C30.3091 10.461 30.3537 10.6895 30.3537 10.9359C30.3537 11.1823 30.3091 11.4108 30.2199 11.6213C30.1307 11.8309 30.0078 12.014 29.8498 12.1681C29.6926 12.3223 29.5056 12.4428 29.2896 12.5312C29.0737 12.6188 28.839 12.6626 28.5855 12.6626C28.332 12.6626 28.0973 12.6188 27.8814 12.5312C27.6654 12.4428 27.48 12.3223 27.3235 12.1681C27.1671 12.014 27.0442 11.8309 26.955 11.6213C26.8658 11.4108 26.8212 11.1823 26.8212 10.9359C26.8212 10.6895 26.8658 10.461 26.955 10.2505C27.0442 10.0409 27.1671 9.85858 27.3235 9.70445C27.48 9.55032 27.6654 9.42905 27.8814 9.34143C28.0973 9.25302 28.332 9.20921 28.5855 9.20921ZM10.109 10.9249C10.109 10.3507 10.4853 9.87892 11.1003 9.87892C11.6878 9.87892 12.0845 10.3303 12.0845 10.9249C12.0845 11.5196 11.6878 11.9702 11.1003 11.9702C10.4853 11.9702 10.109 11.4992 10.109 10.9249ZM12.7542 10.9249V9.29136H12.0438V9.68802C11.8177 9.39385 11.4766 9.20921 11.0118 9.20921C10.0957 9.20921 9.37826 9.92664 9.37826 10.9249C9.37826 11.9225 10.0957 12.6407 11.0118 12.6407C11.4766 12.6407 11.8177 12.4561 12.0438 12.1619V12.5585H12.7542V10.9249ZM8.74923 12.5585V10.5079C8.74923 9.73574 8.25712 9.21625 7.46457 9.20921C7.04757 9.20217 6.61648 9.33204 6.31605 9.79051C6.09073 9.42827 5.73475 9.20921 5.2356 9.20921C4.88744 9.20921 4.54554 9.3117 4.27875 9.69428V9.29136H3.56836V12.5585H4.28579V10.7474C4.28579 10.1801 4.60031 9.87892 5.08538 9.87892C5.55715 9.87892 5.79656 10.1864 5.79656 10.7403V12.5585H6.51399V10.7474C6.51399 10.1801 6.84259 9.87892 7.31358 9.87892C7.79943 9.87892 8.03179 10.1864 8.03179 10.7403V12.5585H8.74923Z" fill="white"/>
</svg>
