<svg width="39" height="8" viewBox="0 0 39 8" fill="none" xmlns="http://www.w3.org/2000/svg">
<path d="M2.53204 0.891602H0.810303V6.90475H2.52291C3.43358 6.90475 4.09117 6.6899 4.66838 6.21056C5.35431 5.64296 5.75998 4.78733 5.75998 3.90231C5.76018 2.12794 4.43423 0.891602 2.53204 0.891602ZM3.90226 5.40881C3.53365 5.74159 3.05508 5.88671 2.29721 5.88671H1.98249V1.9105H2.29721C3.05508 1.9105 3.51492 2.04602 3.90226 2.39676C4.30794 2.75788 4.55188 3.3177 4.55188 3.89357C4.55188 4.47097 4.30794 5.04779 3.90226 5.40881Z" fill="#231F20"/>
<path d="M7.47276 0.891602H6.2998V6.90475H7.47276V0.891602Z" fill="#231F20"/>
<path d="M10.3409 3.19888C9.6371 2.93852 9.43042 2.7667 9.43042 2.44189C9.43042 2.063 9.79865 1.77536 10.3041 1.77536C10.6556 1.77536 10.9443 1.91971 11.2499 2.26229L11.8636 1.45871C11.3593 1.0175 10.7559 0.791992 10.0967 0.791992C9.03272 0.791992 8.22117 1.53084 8.22117 2.51497C8.22117 3.34343 8.59899 3.76754 9.70059 4.16391C10.1599 4.32583 10.3935 4.43369 10.5115 4.50629C10.7458 4.65929 10.8632 4.87605 10.8632 5.12845C10.8632 5.61567 10.4758 5.97659 9.9525 5.97659C9.39306 5.97659 8.94244 5.69682 8.67246 5.17465L7.91479 5.90437C8.45522 6.69757 9.10417 7.04918 9.99668 7.04918C11.2155 7.04918 12.0706 6.23878 12.0706 5.07476C12.0704 4.11934 11.6752 3.68677 10.3409 3.19888Z" fill="#231F20"/>
<path d="M12.4404 3.90226C12.4404 5.66971 13.8284 7.04022 15.6144 7.04022C16.1194 7.04022 16.5518 6.94091 17.085 6.68986V5.30917C16.616 5.77852 16.2007 5.96773 15.6691 5.96773C14.4877 5.96773 13.6494 5.11123 13.6494 3.89352C13.6494 2.7391 14.5143 1.82825 15.6146 1.82825C16.174 1.82825 16.5975 2.02792 17.0852 2.50486V1.12475C16.5703 0.863514 16.147 0.755371 15.6423 0.755371C13.8649 0.755659 12.4404 2.15402 12.4404 3.90226Z" fill="#231F20"/>
<path d="M26.3847 4.93062L24.7811 0.891602H23.4998L26.0518 7.05909H26.6829L29.2806 0.891602H28.0091L26.3847 4.93062Z" fill="#231F20"/>
<path d="M29.811 6.90475H33.1374V5.8869H30.983V4.26381H33.058V3.24519H30.983V1.9105H33.1374V0.891602H29.811V6.90475Z" fill="#231F20"/>
<path d="M37.7813 2.66683C37.7813 1.54103 37.0058 0.891602 35.6532 0.891602H33.9141V6.90475H35.0856V4.48921H35.2386L36.862 6.90485H38.3044L36.4115 4.37147C37.2948 4.19187 37.7813 3.58758 37.7813 2.66683ZM35.4282 3.65999H35.0857V1.83876H35.4468C36.1773 1.83876 36.5744 2.14485 36.5744 2.73002C36.5744 3.3346 36.1774 3.65999 35.4282 3.65999Z" fill="#231F20"/>
<path d="M20.6669 7.11791C22.4335 7.11791 23.8657 5.68574 23.8657 3.91906C23.8657 2.15239 22.4335 0.720215 20.6669 0.720215C18.9002 0.720215 17.468 2.15239 17.468 3.91906C17.468 5.68574 18.9002 7.11791 20.6669 7.11791Z" fill="url(#paint0_linear_1175_80)"/>
<path opacity="0.65" d="M20.6669 7.11791C22.4335 7.11791 23.8657 5.68574 23.8657 3.91906C23.8657 2.15239 22.4335 0.720215 20.6669 0.720215C18.9002 0.720215 17.468 2.15239 17.468 3.91906C17.468 5.68574 18.9002 7.11791 20.6669 7.11791Z" fill="url(#paint1_linear_1175_80)"/>
<path d="M38.5303 1.11767C38.5303 1.01221 38.4576 0.95459 38.3301 0.95459H38.1604V1.48311H38.2865V1.27806L38.4344 1.48311H38.5884L38.4145 1.26519C38.4892 1.24521 38.5303 1.19104 38.5303 1.11767ZM38.3079 1.18989H38.2866V1.05169H38.3093C38.3716 1.05169 38.4042 1.07416 38.4042 1.11968C38.4042 1.16626 38.3712 1.18989 38.3079 1.18989Z" fill="#231F20"/>
<path d="M38.3556 0.757324C38.099 0.757324 37.8953 0.962084 37.8953 1.21803C37.8953 1.47389 38.1013 1.67894 38.3556 1.67894C38.6056 1.67894 38.8104 1.47158 38.8104 1.21803C38.8104 0.965542 38.6055 0.757324 38.3556 0.757324ZM38.3536 1.59653C38.1516 1.59653 37.9864 1.42846 37.9864 1.21871C37.9864 1.00828 38.1495 0.840304 38.3536 0.840304C38.5546 0.840304 38.7184 1.01212 38.7184 1.21871C38.7184 1.42664 38.5548 1.59653 38.3536 1.59653Z" fill="#231F20"/>
<defs>
<linearGradient id="paint0_linear_1175_80" x1="22.3042" y1="6.48271" x2="20.0894" y2="3.01489" gradientUnits="userSpaceOnUse">
<stop stop-color="#F89F21"/>
<stop offset="0.2502" stop-color="#F79A23"/>
<stop offset="0.5331" stop-color="#F78E22"/>
<stop offset="0.6196" stop-color="#F68721"/>
<stop offset="0.7232" stop-color="#F48220"/>
<stop offset="1" stop-color="#F27623"/>
</linearGradient>
<linearGradient id="paint1_linear_1175_80" x1="21.9544" y1="6.43557" x2="18.7173" y2="0.108499" gradientUnits="userSpaceOnUse">
<stop stop-color="#F68721" stop-opacity="0"/>
<stop offset="0.3587" stop-color="#E27027" stop-opacity="0.2704"/>
<stop offset="0.703" stop-color="#D4612C" stop-opacity="0.5299"/>
<stop offset="0.9816" stop-color="#D15D2D" stop-opacity="0.74"/>
</linearGradient>
</defs>
</svg>
